<svg width="24" height="24" viewBox="0 0 24 24" fill="none" xmlns="http://www.w3.org/2000/svg">
<circle cx="12" cy="12" r="12" fill="#C7C7C7"/>
<path d="M12 24C18.6274 24 24 18.6274 24 12C24 5.37258 18.6274 0 12 0C5.37258 0 0 5.37258 0 12C0 18.6274 5.37258 24 12 24Z" fill="#293E3D"/>
<path d="M12.0001 0C11.7859 0 11.573 0.00585938 11.3616 0.0169219C17.6921 0.348891 22.7231 5.5868 22.7231 12C22.7231 18.4132 17.6921 23.6511 11.3616 23.9831C11.573 23.9941 11.7859 24 12.0001 24C18.6275 24 24.0001 18.6274 24.0001 12C24.0001 5.37258 18.6275 0 12.0001 0Z" fill="#2F2113"/>
<path d="M11.9999 21.3511C17.1643 21.3511 21.3508 17.1645 21.3508 12.0001C21.3508 6.83573 17.1643 2.64917 11.9999 2.64917C6.83549 2.64917 2.64893 6.83573 2.64893 12.0001C2.64893 17.1645 6.83549 21.3511 11.9999 21.3511Z" fill="#F4FBFF"/>
<path d="M11.9999 2.64917C11.741 2.64917 11.4846 2.66019 11.231 2.68081C16.0356 3.07194 19.813 7.0947 19.813 12.0001C19.813 16.9055 16.0356 20.9283 11.231 21.3194C11.4846 21.3401 11.741 21.3511 11.9999 21.3511C17.1643 21.3511 21.3509 17.1645 21.3509 12.0002C21.3509 6.83581 17.1643 2.64917 11.9999 2.64917Z" fill="#DAF1F4"/>
<path d="M11.9999 5.52699C11.7998 5.52699 11.6377 5.36485 11.6377 5.16484V4.63327C11.6377 4.43326 11.7998 4.27112 11.9999 4.27112C12.1999 4.27112 12.3621 4.43326 12.3621 4.63327V5.16484C12.3621 5.36485 12.1999 5.52699 11.9999 5.52699Z" fill="#2B4D66"/>
<path d="M16.8134 7.5371C16.7206 7.5371 16.628 7.50171 16.5572 7.43102C16.4158 7.28955 16.4158 7.06029 16.5573 6.91882L16.9332 6.54297C17.0746 6.4015 17.3039 6.40155 17.4454 6.54297C17.5868 6.68444 17.5868 6.91371 17.4453 7.05518L17.0694 7.43107C16.9987 7.50171 16.906 7.5371 16.8134 7.5371Z" fill="#2B4D66"/>
<path d="M19.3271 12.3621H18.7955C18.5954 12.3621 18.4333 12.2 18.4333 12C18.4333 11.8 18.5955 11.6378 18.7955 11.6378H19.3271C19.5271 11.6378 19.6892 11.8 19.6892 12C19.6892 12.2 19.5271 12.3621 19.3271 12.3621Z" fill="#2B4D66"/>
<path d="M17.1614 17.5515C17.0687 17.5515 16.976 17.5161 16.9053 17.4454L16.5294 17.0696C16.388 16.9281 16.388 16.6988 16.5294 16.5573C16.6709 16.416 16.9001 16.416 17.0417 16.5573L17.4175 16.9332C17.5589 17.0746 17.5589 17.3039 17.4175 17.4454C17.3468 17.5161 17.254 17.5515 17.1614 17.5515Z" fill="#2B4D66"/>
<path d="M11.9605 19.6895C11.7605 19.6895 11.5984 19.5273 11.5984 19.3273V18.7957C11.5984 18.5957 11.7605 18.4336 11.9605 18.4336C12.1606 18.4336 12.3227 18.5957 12.3227 18.7957V19.3273C12.3227 19.5273 12.1606 19.6895 11.9605 19.6895Z" fill="#2B4D66"/>
<path d="M6.7711 17.5236C6.67843 17.5236 6.58571 17.4882 6.51502 17.4174C6.37355 17.276 6.3736 17.0467 6.51502 16.9052L6.89091 16.5294C7.03238 16.388 7.26164 16.388 7.40311 16.5294C7.54453 16.6709 7.54453 16.9002 7.40306 17.0416L7.02717 17.4175C6.95649 17.4882 6.86377 17.5236 6.7711 17.5236Z" fill="#2B4D66"/>
<path d="M5.16471 12.3227H4.63315C4.43314 12.3227 4.271 12.1606 4.271 11.9605C4.271 11.7605 4.43314 11.5984 4.63315 11.5984H5.16471C5.36473 11.5984 5.52687 11.7605 5.52687 11.9605C5.52692 12.1606 5.36473 12.3227 5.16471 12.3227Z" fill="#2B4D66"/>
<path d="M7.17483 7.50928C7.08215 7.50928 6.98948 7.47393 6.91875 7.4032L6.54286 7.02735C6.40144 6.88588 6.40139 6.65662 6.54281 6.51515C6.68428 6.37373 6.91354 6.37368 7.05501 6.5151L7.4309 6.89099C7.57233 7.03242 7.57237 7.26173 7.43095 7.4032C7.36017 7.47389 7.2675 7.50928 7.17483 7.50928Z" fill="#2B4D66"/>
<path d="M11.9999 12.3622H8.92392C8.72391 12.3622 8.56177 12.2 8.56177 12C8.56177 11.7999 8.72391 11.6378 8.92392 11.6378H11.6377V7.03013C11.6377 6.83011 11.7998 6.66797 11.9998 6.66797C12.1998 6.66797 12.362 6.83011 12.362 7.03013V12C12.362 12.2 12.1999 12.3622 11.9999 12.3622Z" fill="#2B4D66"/>
<path d="M15.7155 14.273C15.6597 14.273 15.6032 14.2601 15.5502 14.2328L11.8343 12.322C11.6564 12.2306 11.5864 12.0122 11.6779 11.8343C11.7693 11.6565 11.9876 11.5864 12.1656 11.6779L15.8815 13.5886C16.0594 13.6801 16.1294 13.8985 16.0379 14.0763C15.9737 14.2012 15.8469 14.273 15.7155 14.273Z" fill="#DA4A54"/>
<path d="M12.0001 12.9666C12.534 12.9666 12.9668 12.5338 12.9668 12C12.9668 11.4661 12.534 11.0333 12.0001 11.0333C11.4662 11.0333 11.0334 11.4661 11.0334 12C11.0334 12.5338 11.4662 12.9666 12.0001 12.9666Z" fill="#365E7D"/>
</svg>
