<svg width="89" height="89" viewBox="0 0 89 89" fill="none" xmlns="http://www.w3.org/2000/svg">
<rect width="89" height="89" rx="20" fill="white"/>
<path fill-rule="evenodd" clip-rule="evenodd" d="M31.1244 47.9448C30.8272 48.3441 30.629 48.7434 30.4309 49.1427C29.6383 50.64 29.1429 51.6382 28.7465 53.3351C28.5484 54.3334 28.4493 55.7309 28.6474 56.9288C28.7465 57.5277 29.0438 58.7255 29.2419 59.2247C29.341 59.4243 29.4401 59.7238 29.5392 59.9234C29.8364 60.6222 30.53 61.82 30.9263 62.419C31.2235 62.8182 31.4216 63.1177 31.818 63.517C32.0161 63.7166 32.6106 64.4154 32.7097 64.5152C32.7097 64.2157 32.3134 62.2193 32.2143 61.9199C32.1152 61.5206 32.1152 61.1213 32.0161 60.6222C31.7189 58.8254 32.2143 57.0286 33.0069 55.4314L33.9977 53.6346C34.0968 53.5348 34.0968 53.5348 34.1959 53.3351L34.4931 52.836C34.5922 52.6364 34.6912 52.5366 34.7903 52.3369C35.2857 51.6382 36.2765 50.4403 36.871 49.7416C40.735 45.8485 45.1935 42.6542 49.6521 39.3601C51.1382 38.3618 52.8226 37.164 54.4078 36.066C55.6958 35.1676 56.8848 34.369 58.0737 33.3708C58.1728 33.2709 58.371 33.0713 58.4701 32.9715C59.0645 32.4724 60.8479 30.6756 61.3433 30.2763C61.5415 30.0767 61.5415 29.9768 61.7397 29.877C61.8387 29.7772 62.0369 29.6774 62.136 29.4777L63.2258 28.1801C63.3249 27.9804 63.424 27.8806 63.523 27.681C64.4148 26.4831 65.3065 24.9858 65.7028 23.4884C65.9009 22.7897 66 21.9911 66 21.2923V20.4938C66 20.0945 65.901 19.5954 65.901 19.1961C65.8019 18.697 65.4055 17.1996 64.8111 17C64.8111 18.1979 63.6221 20.2941 63.0277 21.2923C62.0369 22.6898 60.947 23.7879 59.7581 24.8859L53.2189 29.877C52.6245 30.2763 52.03 30.6756 51.5346 31.1747C51.2373 31.3744 50.9401 31.574 50.6429 31.7736L44.4009 36.2656C39.1498 39.959 34.5921 42.754 31.1244 47.9448Z" fill="#8CC841"/>
<path fill-rule="evenodd" clip-rule="evenodd" d="M37.6636 52.6365C36.7719 53.6347 35.781 55.132 35.2857 56.4297C34.2949 58.7256 33.7004 61.7203 34.493 64.3156C34.6912 65.0144 34.8894 65.4137 35.1866 65.9128C35.2857 66.0126 35.3847 66.3121 35.5829 66.3121C35.5829 64.4154 35.5829 63.3174 36.0783 61.5206C36.5737 59.5242 37.6635 58.0269 38.9516 56.5295L39.546 55.8308C39.7442 55.6311 39.9423 55.4315 40.2396 55.1321C40.735 54.5331 42.6175 52.9359 43.2119 52.8361C43.5092 51.9377 47.2742 49.6418 47.7696 49.542C48.4631 48.5438 49.9492 47.7452 50.94 46.9467L52.5253 45.649C53.0207 45.1499 53.318 44.9502 54.0115 44.2514C54.5069 43.7523 54.9032 43.2533 55.3986 42.6543C56.1912 41.6561 55.9931 41.8557 56.4885 40.8575C57.2811 39.3602 57.4792 37.763 57.4792 36.066C57.2811 36.1659 55.3986 37.5634 55.1013 37.8628L53.9124 38.7612C53.8133 38.8611 53.6152 38.9609 53.5161 39.0607L51.9308 40.2586C51.6336 40.4582 51.4354 40.6578 51.1382 40.8575C50.0483 41.6561 49.0576 42.4547 48.0668 43.2532L46.4815 44.4511C43.6082 46.2479 39.9424 49.7417 37.6636 52.6365Z" fill="#8CC841"/>
<path fill-rule="evenodd" clip-rule="evenodd" d="M34.9885 43.8519C35.1866 43.8519 35.8801 43.2531 36.0783 43.1532C36.4746 42.8538 36.7719 42.5543 37.1682 42.2548C37.6636 41.8555 38.9516 40.7575 39.1498 40.3582L38.8525 40.1586C38.7535 40.0588 38.6543 40.0587 38.5553 39.9589L37.9608 39.5596C37.7627 39.4598 37.5645 39.2602 37.4654 39.1604L35.3848 37.4634C34.2949 36.565 32.2143 34.5686 31.3226 33.6702L29.2419 31.7735C29.1429 31.6737 29.1428 31.6737 29.0438 31.5739C28.2511 30.8751 28.1521 30.5757 27.5576 29.6773C26.765 28.4794 26.1705 26.8822 25.8732 25.3849C25.576 24.0872 25.576 22.9892 25.576 21.6915C24.9815 21.8912 24.1889 23.3885 23.8917 23.9874C23.5944 24.6862 23.3963 25.3849 23.1981 26.0837C23.099 26.6826 23 27.3814 23 28.18C23 30.1764 23.1981 30.8751 23.8917 32.3724C24.0898 32.8715 24.0898 32.9714 24.3871 33.5703C24.7834 34.3689 26.0714 36.1657 26.765 36.7646L29.2419 39.36L33.6013 43.0534C33.7995 43.253 33.9977 43.3528 34.1959 43.5525L34.9885 43.8519Z" fill="#52A50C"/>
<path fill-rule="evenodd" clip-rule="evenodd" d="M31.6198 73C31.8179 73 32.1152 72.9002 32.3133 72.9002C34.5921 72.3013 36.0783 72.1016 38.4562 71.2033C38.8525 71.0036 39.3479 70.9038 39.7442 70.7041C40.3387 70.4047 41.4285 69.9056 42.023 69.4065L42.7165 68.8075C42.8156 68.7077 42.8156 68.7077 43.0138 68.6079L43.1129 68.508C44.3018 67.5098 45.1935 66.0125 45.788 64.5152C46.1843 63.4171 46.6797 61.2211 46.6797 60.123C46.4815 60.2229 46.3825 60.4225 46.2834 60.5223L45.5898 61.1213C45.4908 61.2211 45.4908 61.221 45.3917 61.3209L44.8963 61.7202C44.5991 62.0196 44.3018 62.2193 43.9055 62.5187C42.3202 63.7166 41.3294 64.3156 39.7442 65.4136L35.0875 68.6079L33.7004 69.8057C33.4032 70.1052 33.1059 70.4047 32.8087 70.7041C32.2142 71.4029 31.8179 72.1016 31.6198 73Z" fill="#8CC841"/>
<path fill-rule="evenodd" clip-rule="evenodd" d="M43.2119 52.9358C43.8064 54.1337 44.4999 55.5312 44.4009 57.328C44.4009 58.426 44.3018 59.025 44.2027 59.9234C44.1036 60.5223 43.7073 61.82 43.7073 62.2193C44.1036 61.9198 44.599 61.5205 44.8963 61.221L45.887 59.9234C46.9769 58.426 47.5714 57.1284 48.1658 55.4314C48.364 54.8324 48.4631 54.1337 48.4631 53.4349C48.4631 53.0357 48.364 51.8378 48.2649 51.4385C48.1659 51.139 47.8686 49.8414 47.7696 49.6417C47.2742 49.7415 43.4101 52.0374 43.2119 52.9358Z" fill="#287907"/>
<path fill-rule="evenodd" clip-rule="evenodd" d="M41.9239 45.549L40.6359 46.647C40.0414 47.1461 39.447 47.4456 39.3479 48.1444L40.4377 49.2424C40.735 49.2424 40.9331 49.0428 41.1313 48.9429C41.8248 48.5436 42.1221 47.9447 42.4193 47.7451C43.0138 47.2459 44.599 46.2477 44.6981 45.4492L44.2027 44.9501C44.1036 44.8502 43.5092 44.3511 43.4101 44.1515C42.9147 44.2513 42.2212 45.2495 41.9239 45.549Z" fill="#52A50C"/>
<path fill-rule="evenodd" clip-rule="evenodd" d="M41.1314 23.3885C43.8065 23.3885 46.0853 25.5846 46.0853 28.3796C46.0853 31.1747 43.9056 33.3707 41.1314 33.3707C38.3572 33.3707 36.1775 31.1747 36.1775 28.3796C36.1775 25.5846 38.4563 23.3885 41.1314 23.3885Z" fill="#6BB400"/>
</svg>
