<svg width="24" height="21" viewBox="0 0 24 21" fill="none" xmlns="http://www.w3.org/2000/svg">
<path d="M23 10.8888H1C0.447998 10.8888 0 10.4532 0 9.91656C0 9.37989 0.447998 8.94434 1 8.94434H23C23.552 8.94434 24 9.37989 24 9.91656C24 10.4532 23.552 10.8888 23 10.8888Z" fill="#1F2453"/>
<path d="M23 1.94444H1C0.447998 1.94444 0 1.50889 0 0.972222C0 0.435554 0.447998 0 1 0H23C23.552 0 24 0.435554 24 0.972222C24 1.50889 23.552 1.94444 23 1.94444Z" fill="#1F2453"/>
<path d="M23 20.1692H1C0.447998 20.1692 0 19.7212 0 19.1692C0 18.6172 0.447998 18.1692 1 18.1692H23C23.552 18.1692 24 18.6172 24 19.1692C24 19.7212 23.552 20.1692 23 20.1692Z" fill="#1F2453"/>
</svg>
